<?xml version="1.0" encoding="iso-8859-1"?>
<!-- Uploaded to: SVG Repo, www.svgrepo.com, Generator: SVG Repo Mixer Tools -->
<svg fill="#000000" height="800px" width="800px" version="1.1" id="Layer_1" xmlns="http://www.w3.org/2000/svg" xmlns:xlink="http://www.w3.org/1999/xlink" 
	 viewBox="0 0 512 512" xml:space="preserve">
<g>
	<g>
		<path d="M500.369,294.067c-7.39-6.443-17.195-9.387-26.897-8.03l-89.933,12.407c-3.115,0.435-6.246,0.734-9.37,1.126
			l-10.317-95.351c-3.507-38.588-35.2-67.686-73.719-67.686c-9.335,0-17.946,5.231-21.436,13.013
			c-3.422,7.646-8.405,12.587-12.698,12.587c-4.292,0-9.284-4.941-12.706-12.578c-3.482-7.791-12.1-13.022-21.427-13.022
			c-38.528,0-70.221,29.099-73.711,67.55l-10.334,95.488c-3.123-0.393-6.246-0.691-9.37-1.126l-89.933-12.407
			c-9.711-1.365-19.507,1.587-26.897,8.03C4.233,300.51,0,309.811,0,319.616c0,16.845,12.578,31.275,29.261,33.57l96.853,13.363
			c43.093,5.939,86.485,8.917,129.886,8.917c43.392,0,86.784-2.978,129.877-8.917l96.853-13.363
			c16.691-2.295,29.269-16.725,29.269-33.57C512,309.811,507.759,300.51,500.369,294.067z M281.6,187.733
			c4.71,0,8.533,3.814,8.533,8.533c0,18.825,15.309,34.133,34.133,34.133c4.71,0,8.533,3.814,8.533,8.533s-3.823,8.533-8.533,8.533
			c-28.237,0-51.2-22.972-51.2-51.2C273.067,191.548,276.881,187.733,281.6,187.733z M187.733,230.4
			c18.816,0,34.133-15.309,34.133-34.133c0-4.719,3.814-8.533,8.533-8.533c4.71,0,8.533,3.814,8.533,8.533
			c0,28.228-22.972,51.2-51.2,51.2c-4.719,0-8.533-3.814-8.533-8.533S183.014,230.4,187.733,230.4z M480.401,336.29l-96.862,13.355
			c-84.634,11.674-170.453,11.674-255.087,0L31.59,336.29c-8.277-1.152-14.524-8.32-14.524-16.674c0-4.864,2.099-9.489,5.769-12.681
			c3.089-2.697,7.014-4.156,11.059-4.156c0.759,0,1.527,0.06,2.295,0.162l89.924,12.407c6.076,0.836,12.169,1.485,18.261,2.202
			c0.017,0,0.026,0,0.043,0.009c9.233,1.084,18.475,2.039,27.716,2.859c0.051,0.008,0.094,0.008,0.145,0.017
			c55.697,4.924,111.701,4.924,167.407,0c0.068,0,0.128-0.009,0.188-0.017c9.242-0.819,18.466-1.775,27.691-2.859
			c0.017-0.009,0.034-0.009,0.051-0.009h0.009c6.084-0.725,12.177-1.365,18.253-2.202l89.924-12.407
			c4.847-0.614,9.694,0.794,13.355,3.994c3.669,3.191,5.777,7.817,5.777,12.681C494.933,327.97,488.687,335.138,480.401,336.29z"/>
	</g>
</g>
</svg>